<?xml version="1.0" encoding="UTF-8"?>
<svg xmlns="http://www.w3.org/2000/svg" xmlns:xlink="http://www.w3.org/1999/xlink" width="70pt" height="70pt" viewBox="0 0 70 70" version="1.1">
<g id="surface1">
<path style=" stroke:none;fill-rule:nonzero;fill:rgb(0%,0%,0%);fill-opacity:1;" d="M 40.644531 69.542969 C 40.351562 69.59375 40.058594 69.636719 39.765625 69.675781 C 40.058594 69.636719 40.351562 69.59375 40.644531 69.542969 Z M 40.644531 69.542969 "/>
<path style=" stroke:none;fill-rule:nonzero;fill:rgb(0%,0%,0%);fill-opacity:1;" d="M 41.34375 69.425781 C 41.203125 69.449219 41.066406 69.472656 40.925781 69.496094 C 41.066406 69.472656 41.203125 69.449219 41.34375 69.425781 Z M 41.34375 69.425781 "/>
<path style=" stroke:none;fill-rule:nonzero;fill:rgb(0%,0%,0%);fill-opacity:1;" d="M 38.984375 69.773438 C 38.640625 69.8125 38.300781 69.84375 37.953125 69.875 C 38.300781 69.84375 38.640625 69.8125 38.984375 69.773438 Z M 38.984375 69.773438 "/>
<path style=" stroke:none;fill-rule:nonzero;fill:rgb(0%,0%,0%);fill-opacity:1;" d="M 39.65625 69.691406 C 39.492188 69.710938 39.328125 69.734375 39.164062 69.753906 C 39.328125 69.734375 39.492188 69.710938 39.65625 69.691406 Z M 39.65625 69.691406 "/>
<path style=" stroke:none;fill-rule:nonzero;fill:rgb(0%,0%,0%);fill-opacity:1;" d="M 42.296875 69.234375 C 42.171875 69.261719 42.050781 69.289062 41.925781 69.3125 C 42.050781 69.289062 42.171875 69.261719 42.296875 69.234375 Z M 42.296875 69.234375 "/>
<path style=" stroke:none;fill-rule:nonzero;fill:rgb(0%,0%,0%);fill-opacity:1;" d="M 44.660156 68.648438 C 44.5625 68.675781 44.460938 68.703125 44.363281 68.730469 C 44.460938 68.703125 44.5625 68.675781 44.660156 68.648438 Z M 44.660156 68.648438 "/>
<path style=" stroke:none;fill-rule:nonzero;fill:rgb(0%,0%,0%);fill-opacity:1;" d="M 43.945312 68.84375 C 43.839844 68.871094 43.730469 68.902344 43.621094 68.929688 C 43.730469 68.902344 43.839844 68.871094 43.945312 68.84375 Z M 43.945312 68.84375 "/>
<path style=" stroke:none;fill-rule:nonzero;fill:rgb(0%,0%,0%);fill-opacity:1;" d="M 43.011719 69.078125 C 42.894531 69.105469 42.78125 69.128906 42.664062 69.15625 C 42.78125 69.128906 42.894531 69.105469 43.011719 69.078125 Z M 43.011719 69.078125 "/>
<path style=" stroke:none;fill-rule:nonzero;fill:rgb(0%,0%,0%);fill-opacity:1;" d="M 37.941406 69.875 C 37.757812 69.890625 37.574219 69.90625 37.390625 69.917969 C 37.574219 69.90625 37.757812 69.890625 37.941406 69.875 Z M 37.941406 69.875 "/>
<path style=" stroke:none;fill-rule:nonzero;fill:rgb(0%,0%,0%);fill-opacity:1;" d="M 70 35 C 70 15.671875 54.328125 0 35 0 C 15.671875 0 0 15.671875 0 35 C 0 54.328125 15.671875 70 35 70 C 35.207031 70 35.410156 69.996094 35.617188 69.992188 L 35.617188 42.746094 L 28.09375 42.746094 L 28.09375 33.984375 L 35.617188 33.984375 L 35.617188 27.535156 C 35.617188 20.054688 40.179688 15.984375 46.851562 15.984375 C 50.046875 15.984375 52.792969 16.222656 53.59375 16.328125 L 53.59375 24.144531 L 48.992188 24.144531 C 45.363281 24.144531 44.660156 25.871094 44.660156 28.402344 L 44.660156 33.984375 L 53.339844 33.984375 L 52.207031 42.746094 L 44.660156 42.746094 L 44.660156 68.648438 C 59.289062 64.453125 70 50.976562 70 35 Z M 70 35 "/>
<path style=" stroke:none;fill-rule:nonzero;fill:rgb(0%,0%,0%);fill-opacity:1;" d="M 37.3125 69.921875 C 36.949219 69.945312 36.582031 69.964844 36.214844 69.976562 C 36.582031 69.964844 36.949219 69.945312 37.3125 69.921875 Z M 37.3125 69.921875 "/>
<path style=" stroke:none;fill-rule:nonzero;fill:rgb(0%,0%,0%);fill-opacity:1;" d="M 36.195312 69.976562 C 36.003906 69.984375 35.808594 69.988281 35.617188 69.992188 C 35.808594 69.988281 36.003906 69.984375 36.195312 69.976562 Z M 36.195312 69.976562 "/>
</g>
</svg>
