<?xml version="1.0" encoding="UTF-8"?>
<svg xmlns="http://www.w3.org/2000/svg" xmlns:xlink="http://www.w3.org/1999/xlink" width="70pt" height="70pt" viewBox="0 0 70 70" version="1.1">
<g id="surface1">
<path style=" stroke:none;fill-rule:nonzero;fill:rgb(0%,0%,0%);fill-opacity:1;" d="M 35 1.457031 C 15.664062 1.457031 0 16.859375 0 35.851562 C 0 51.050781 10.027344 63.9375 23.929688 68.484375 C 25.679688 68.808594 26.324219 67.742188 26.324219 66.828125 C 26.324219 66.011719 26.292969 63.847656 26.277344 60.980469 C 16.542969 63.054688 14.488281 56.367188 14.488281 56.367188 C 12.898438 52.398438 10.597656 51.335938 10.597656 51.335938 C 7.425781 49.203125 10.839844 49.246094 10.839844 49.246094 C 14.355469 49.488281 16.203125 52.792969 16.203125 52.792969 C 19.324219 58.050781 24.394531 56.53125 26.394531 55.652344 C 26.710938 53.425781 27.613281 51.914062 28.613281 51.054688 C 20.839844 50.191406 12.671875 47.234375 12.671875 34.058594 C 12.671875 30.304688 14.027344 27.234375 16.273438 24.828125 C 15.878906 23.960938 14.695312 20.464844 16.578125 15.726562 C 16.578125 15.726562 19.507812 14.804688 26.203125 19.253906 C 29.003906 18.488281 31.976562 18.109375 34.953125 18.09375 C 37.929688 18.109375 40.902344 18.488281 43.703125 19.253906 C 50.351562 14.804688 53.285156 15.726562 53.285156 15.726562 C 55.164062 20.464844 53.984375 23.960938 53.632812 24.828125 C 55.867188 27.234375 57.222656 30.304688 57.222656 34.058594 C 57.222656 47.269531 49.039062 50.179688 41.253906 51.023438 C 42.476562 52.058594 43.617188 54.164062 43.617188 57.386719 C 43.617188 61.992188 43.570312 65.6875 43.570312 66.804688 C 43.570312 67.707031 44.183594 68.785156 45.976562 68.441406 C 59.980469 63.925781 70 51.027344 70 35.851562 C 70 16.859375 54.328125 1.457031 35 1.457031 Z M 35 1.457031 "/>
</g>
</svg>
