<?xml version="1.0" encoding="UTF-8"?>
<svg xmlns="http://www.w3.org/2000/svg" xmlns:xlink="http://www.w3.org/1999/xlink" width="70pt" height="70pt" viewBox="0 0 70 70" version="1.1">
<g id="surface1">
<path style=" stroke:none;fill-rule:nonzero;fill:rgb(0%,0%,0%);fill-opacity:1;" d="M 41.699219 35 C 41.699219 38.699219 38.699219 41.699219 35 41.699219 C 31.300781 41.699219 28.300781 38.699219 28.300781 35 C 28.300781 31.300781 31.300781 28.300781 35 28.300781 C 38.699219 28.300781 41.699219 31.300781 41.699219 35 Z M 41.699219 35 "/>
<path style=" stroke:none;fill-rule:nonzero;fill:rgb(0%,0%,0%);fill-opacity:1;" d="M 50.667969 23.148438 C 50.34375 22.273438 49.832031 21.484375 49.164062 20.835938 C 48.515625 20.167969 47.726562 19.65625 46.851562 19.332031 C 46.144531 19.058594 45.082031 18.730469 43.121094 18.640625 C 41 18.542969 40.367188 18.523438 35 18.523438 C 29.632812 18.523438 28.996094 18.542969 26.878906 18.640625 C 24.917969 18.730469 23.855469 19.058594 23.148438 19.332031 C 22.273438 19.65625 21.484375 20.167969 20.835938 20.835938 C 20.167969 21.484375 19.65625 22.273438 19.332031 23.148438 C 19.058594 23.855469 18.730469 24.917969 18.640625 26.878906 C 18.542969 29 18.523438 29.632812 18.523438 35 C 18.523438 40.367188 18.542969 41.003906 18.640625 43.121094 C 18.730469 45.082031 19.058594 46.144531 19.332031 46.851562 C 19.65625 47.726562 20.167969 48.515625 20.835938 49.164062 C 21.484375 49.832031 22.273438 50.34375 23.148438 50.667969 C 23.855469 50.941406 24.917969 51.269531 26.878906 51.359375 C 28.996094 51.457031 29.632812 51.476562 35 51.476562 C 40.367188 51.476562 41.003906 51.457031 43.121094 51.359375 C 45.082031 51.269531 46.144531 50.941406 46.851562 50.667969 C 48.605469 49.992188 49.992188 48.605469 50.667969 46.851562 C 50.941406 46.144531 51.269531 45.082031 51.359375 43.121094 C 51.457031 41.003906 51.476562 40.367188 51.476562 35 C 51.476562 29.632812 51.457031 29 51.359375 26.878906 C 51.269531 24.917969 50.941406 23.855469 50.667969 23.148438 Z M 35 45.320312 C 29.300781 45.320312 24.679688 40.699219 24.679688 35 C 24.679688 29.300781 29.300781 24.679688 35 24.679688 C 40.699219 24.679688 45.320312 29.300781 45.320312 35 C 45.320312 40.699219 40.699219 45.320312 35 45.320312 Z M 45.726562 26.683594 C 44.394531 26.683594 43.316406 25.605469 43.316406 24.273438 C 43.316406 22.941406 44.394531 21.859375 45.726562 21.859375 C 47.058594 21.859375 48.140625 22.941406 48.140625 24.273438 C 48.140625 25.605469 47.058594 26.683594 45.726562 26.683594 Z M 45.726562 26.683594 "/>
<path style=" stroke:none;fill-rule:nonzero;fill:rgb(0%,0%,0%);fill-opacity:1;" d="M 35 0 C 15.671875 0 0 15.671875 0 35 C 0 54.328125 15.671875 70 35 70 C 54.328125 70 70 54.328125 70 35 C 70 15.671875 54.328125 0 35 0 Z M 54.976562 43.285156 C 54.878906 45.425781 54.539062 46.886719 54.042969 48.164062 C 53 50.863281 50.863281 53 48.164062 54.042969 C 46.886719 54.539062 45.425781 54.878906 43.285156 54.976562 C 41.144531 55.074219 40.457031 55.097656 35 55.097656 C 29.542969 55.097656 28.859375 55.074219 26.714844 54.976562 C 24.574219 54.878906 23.113281 54.539062 21.835938 54.042969 C 20.496094 53.539062 19.28125 52.746094 18.277344 51.722656 C 17.253906 50.71875 16.460938 49.503906 15.957031 48.164062 C 15.460938 46.886719 15.121094 45.425781 15.023438 43.285156 C 14.925781 41.144531 14.902344 40.457031 14.902344 35 C 14.902344 29.542969 14.925781 28.855469 15.023438 26.714844 C 15.121094 24.574219 15.460938 23.113281 15.957031 21.835938 C 16.460938 20.496094 17.253906 19.28125 18.277344 18.277344 C 19.28125 17.253906 20.496094 16.460938 21.835938 15.957031 C 23.113281 15.460938 24.574219 15.121094 26.714844 15.023438 C 28.855469 14.925781 29.542969 14.902344 35 14.902344 C 40.457031 14.902344 41.144531 14.925781 43.285156 15.023438 C 45.425781 15.121094 46.886719 15.460938 48.164062 15.957031 C 49.503906 16.460938 50.71875 17.253906 51.722656 18.277344 C 52.746094 19.28125 53.539062 20.496094 54.042969 21.835938 C 54.539062 23.113281 54.878906 24.574219 54.976562 26.714844 C 55.074219 28.855469 55.097656 29.542969 55.097656 35 C 55.097656 40.457031 55.074219 41.144531 54.976562 43.285156 Z M 54.976562 43.285156 "/>
</g>
</svg>
