<?xml version="1.0" encoding="UTF-8"?>
<svg xmlns="http://www.w3.org/2000/svg" xmlns:xlink="http://www.w3.org/1999/xlink" width="70pt" height="70pt" viewBox="0 0 70 70" version="1.1">
<g id="surface1">
<path style=" stroke:none;fill-rule:nonzero;fill:rgb(0%,0%,0%);fill-opacity:1;" d="M 35 0 C 15.671875 0 0 15.671875 0 35 C 0 54.328125 15.671875 70 35 70 C 54.328125 70 70 54.328125 70 35 C 70 15.671875 54.328125 0 35 0 Z M 24.828125 52.910156 L 16.304688 52.910156 L 16.304688 27.265625 L 24.828125 27.265625 Z M 20.566406 23.761719 L 20.511719 23.761719 C 17.652344 23.761719 15.800781 21.792969 15.800781 19.332031 C 15.800781 16.816406 17.707031 14.902344 20.625 14.902344 C 23.539062 14.902344 25.335938 16.816406 25.390625 19.332031 C 25.390625 21.792969 23.539062 23.761719 20.566406 23.761719 Z M 55.566406 52.910156 L 47.042969 52.910156 L 47.042969 39.191406 C 47.042969 35.742188 45.808594 33.390625 42.722656 33.390625 C 40.371094 33.390625 38.96875 34.976562 38.351562 36.507812 C 38.125 37.058594 38.070312 37.824219 38.070312 38.589844 L 38.070312 52.910156 L 29.546875 52.910156 C 29.546875 52.910156 29.660156 29.671875 29.546875 27.265625 L 38.070312 27.265625 L 38.070312 30.894531 C 39.203125 29.148438 41.230469 26.664062 45.753906 26.664062 C 51.359375 26.664062 55.566406 30.328125 55.566406 38.207031 Z M 55.566406 52.910156 "/>
</g>
</svg>
